<?xml version="1.0" standalone="no"?>
<!DOCTYPE svg PUBLIC "-//W3C//DTD SVG 20010904//EN"
 "http://www.w3.org/TR/2001/REC-SVG-20010904/DTD/svg10.dtd">
<svg version="1.0" xmlns="http://www.w3.org/2000/svg"
 width="122.000000pt" height="42.000000pt" viewBox="0 0 502.000000 132.000000"
 preserveAspectRatio="xMidYMid meet">

<g transform="translate(0.000000,132.000000) scale(0.100000,-0.100000)"
fill="#000000" stroke="none">
<path d="M73 1240 c-64 -39 -63 -29 -63 -557 0 -456 1 -479 20 -510 32 -53 63
-63 205 -63 144 0 185 12 213 64 15 28 17 77 17 511 0 434 -2 483 -17 511 -28
52 -69 64 -215 64 -109 0 -133 -3 -160 -20z m288 -70 c18 -10 19 -26 19 -485
0 -459 -1 -475 -19 -485 -11 -5 -68 -10 -127 -10 -86 0 -111 3 -126 17 -17 15
-18 43 -18 476 0 414 2 462 17 479 14 15 32 18 125 18 60 0 118 -5 129 -10z"/>
<path d="M624 1250 c-11 -4 -33 -22 -47 -40 l-27 -32 0 -179 c0 -276 -8 -269
313 -269 212 0 226 1 251 21 50 39 56 65 56 239 0 182 -9 217 -62 250 -30 18
-49 20 -248 19 -118 0 -224 -4 -236 -9z m450 -92 c13 -18 16 -52 16 -166 0
-80 -5 -152 -10 -163 -10 -18 -23 -19 -218 -19 -149 0 -211 3 -220 12 -8 8
-12 60 -12 169 0 130 3 160 16 173 13 14 47 16 214 16 194 0 199 -1 214 -22z"/>
<path d="M1410 746 c0 -3 53 -96 119 -208 115 -198 119 -203 153 -206 l35 -3
100 173 c55 95 111 190 123 211 l22 37 -39 0 -38 -1 -100 -174 c-55 -95 -101
-172 -103 -170 -2 2 -48 79 -102 172 -96 165 -98 168 -134 171 -20 2 -36 1
-36 -2z"/>
<path d="M2035 725 c-24 -24 -25 -28 -25 -183 0 -146 2 -162 21 -186 l20 -26
174 0 174 0 20 26 c19 24 21 40 21 186 0 155 -1 159 -25 183 -24 25 -27 25
-190 25 -163 0 -166 0 -190 -25z m335 -185 l0 -150 -145 0 -145 0 0 150 0 150
145 0 145 0 0 -150z"/>
<path d="M2502 559 c4 -246 -12 -229 219 -229 225 0 209 -18 209 230 l0 190
-30 0 -30 0 -2 -177 -3 -178 -147 -3 -148 -3 0 181 0 180 -36 0 -36 0 4 -191z"/>
<path d="M3544 643 c34 -60 89 -154 122 -210 57 -99 60 -103 94 -103 l35 0
121 210 122 210 -38 0 -37 0 -98 -170 c-54 -93 -101 -170 -105 -170 -4 0 -52
77 -106 170 l-98 170 -38 0 -37 0 63 -107z"/>
<path d="M4112 727 c-21 -22 -22 -33 -22 -190 0 -221 -14 -207 209 -207 227 0
215 -10 219 185 4 163 1 186 -28 215 -18 18 -34 20 -188 20 -163 0 -169 -1
-190 -23z m336 -190 l3 -148 -148 3 -148 3 -3 134 c-1 74 0 141 2 148 4 11 37
13 148 11 l143 -3 3 -148z"/>
<path d="M4580 566 c0 -170 1 -185 21 -210 l20 -26 173 0 c223 0 209 -13 217
199 3 86 3 171 1 189 -4 29 -8 32 -38 32 l-34 0 0 -180 0 -181 -147 3 -148 3
-3 178 -2 177 -30 0 -30 0 0 -184z"/>
<path d="M608 624 c-52 -27 -58 -56 -58 -254 l0 -180 34 -38 34 -37 229 -3
c215 -2 230 -1 261 18 53 33 62 68 62 250 0 174 -6 200 -56 239 -25 20 -38 21
-253 21 -180 -1 -232 -4 -253 -16z m472 -83 c5 -11 10 -83 10 -163 0 -202 18
-188 -230 -188 -167 0 -201 2 -214 16 -13 13 -16 43 -16 173 0 109 4 161 12
169 9 9 71 12 220 12 195 0 208 -1 218 -19z"/>
<path d="M3000 295 l0 -35 213 2 212 3 0 30 0 30 -212 3 -213 2 0 -35z"/>
</g>
</svg>
